<?xml version="1.0" encoding="UTF-8" standalone="no"?>
<!DOCTYPE svg PUBLIC "-//W3C//DTD SVG 1.1//EN" "http://www.w3.org/Graphics/SVG/1.1/DTD/svg11.dtd">
<svg version="1.1" xmlns="http://www.w3.org/2000/svg" xmlns:xlink="http://www.w3.org/1999/xlink" preserveAspectRatio="xMidYMid meet" viewBox="0 0 300 249" ><defs><path d="M209 155.63C209 167.49 199.37 177.13 187.5 177.13C175.63 177.13 166 167.49 166 155.63C166 143.76 175.63 134.13 187.5 134.13C199.37 134.13 209 143.76 209 155.63Z" id="g1zBJdulGM"></path><path d="M115.25 155.63C115.25 167.49 105.62 177.13 93.75 177.13C81.88 177.13 72.25 167.49 72.25 155.63C72.25 143.76 81.88 134.13 93.75 134.13C105.62 134.13 115.25 143.76 115.25 155.63Z" id="akpIBjRWu"></path><path d="M93.75 155.63C109.38 116.72 118.75 93.38 121.88 85.59C123.26 82.14 118.74 81.14 108.32 82.59C108.23 82.89 108.18 83.08 108.16 83.16C105.51 92.61 111.93 102.2 121.69 103.36C127.96 104.1 143.65 105.96 168.75 108.94L187.5 155.63" id="b1jFx0gRbM"></path><path d="M187.5 93.38L168.75 93.38L178.13 93.38L153.63 147.58C152.65 149.76 151.97 151.26 151.61 152.07C151.6 152.07 139.07 136.53 114 105.44C139.39 138.9 152.69 155.63 153.9 155.63C158.38 155.63 169.58 155.63 187.5 155.63" id="d1QcAUWmoJ"></path></defs><g><g><g><g><use xlink:href="#g1zBJdulGM" opacity="1" fill-opacity="0" stroke="#000000" stroke-width="5" stroke-opacity="1"></use></g></g><g><g><use xlink:href="#akpIBjRWu" opacity="1" fill-opacity="0" stroke="#000000" stroke-width="5" stroke-opacity="1"></use></g></g><g><g><use xlink:href="#b1jFx0gRbM" opacity="1" fill-opacity="0" stroke="#81c52b" stroke-width="4" stroke-opacity="1"></use></g></g><g><g><use xlink:href="#d1QcAUWmoJ" opacity="1" fill-opacity="0" stroke="#81c52b" stroke-width="4" stroke-opacity="1"></use></g></g></g></g></svg>